# xmcd
#
# Track frame offsets: 
#        183
#        28265
#        46713
#        65573
#        77920
#        97188
#        114148
#        133493
#        154193
#
# Disc length: 2302 seconds
#
# Revision: 1
# Processed by: cddbd v1.5.1PL2 Copyright (c) Steve Scherf et al.
# Submitted via: ExactAudioCopy v0.90b4
#
DISCID=7908fc09
DTITLE=Michel Graillier - Dream Drops
DYEAR=1992
DGENRE=Jazz
TTITLE0=Auroville
TTITLE1=Keep on Kicking
TTITLE2=Top Dance
TTITLE3=Bill's Heart
TTITLE4=Dream Drops
TTITLE5=Little Song
TTITLE6=L'étranger
TTITLE7=Nem Um Talves
TTITLE8=Owl Blues
EXTD=YEAR: 1981
EXTT0=
EXTT1=
EXTT2=
EXTT3=
EXTT4=
EXTT5=
EXTT6=
EXTT7=
EXTT8=
PLAYORDER=
